<svg width="512" height="512" viewBox="0 0 512 512" xmlns="http://www.w3.org/2000/svg">
  <defs>
    <clipPath id="sphereClip">
      <circle cx="256" cy="256" r="150"></circle>
    </clipPath>
  </defs>

  <!-- Rotated globe -->
  <g transform="rotate(-45 256 256)">

    <g clip-path="url(#sphereClip)" fill="none" stroke="#ffffff" stroke-width="16" stroke-linecap="round">

      <!-- Globe bands -->
      <path d="M120 120C180 70 310 70 390 120"></path>
      <path d="M95 165C175 95 325 95 417 165"></path>
      <path d="M78 215C170 125 340 125 434 215"></path>
      <path d="M70 270C170 160 342 160 442 270"></path>
      <path d="M82 325C180 210 332 210 430 325"></path>
      <path d="M110 375C195 285 317 285 402 375"></path>
      <path d="M155 420C220 355 292 355 357 420"></path>

      <!-- Right-side taper -->
      <path d="M320 80C420 130 470 220 470 320"></path>
      <path d="M350 105C435 155 470 230 470 300"></path>
      <path d="M375 135C445 185 470 245 470 285"></path>
    </g>

  </g>
</svg>